<?xml version="1.0" encoding="UTF-8" standalone="no"?>
<!-- Created with Inkscape (http://www.inkscape.org/) -->

<svg
   xmlns:dc="http://purl.org/dc/elements/1.1/"
   xmlns:cc="http://creativecommons.org/ns#"
   xmlns:rdf="http://www.w3.org/1999/02/22-rdf-syntax-ns#"
   xmlns:svg="http://www.w3.org/2000/svg"
   xmlns="http://www.w3.org/2000/svg"
   xmlns:sodipodi="http://sodipodi.sourceforge.net/DTD/sodipodi-0.dtd"
   xmlns:inkscape="http://www.inkscape.org/namespaces/inkscape"
   width="261.71426"
   height="121.14285"
   viewBox="0 0 69.245232 32.052378"
   version="1.1"
   id="svg8"
   inkscape:version="0.92.3 (2405546, 2018-03-11)"
   sodipodi:docname="dappit-logo-LightBG.svg">
  <defs
     id="defs2" />
  <sodipodi:namedview
     id="base"
     pagecolor="#ffffff"
     bordercolor="#666666"
     borderopacity="1.0"
     inkscape:pageopacity="0.0"
     inkscape:pageshadow="2"
     inkscape:zoom="3.959798"
     inkscape:cx="153.37843"
     inkscape:cy="58.609755"
     inkscape:document-units="mm"
     inkscape:current-layer="text1489-3-1-8"
     showgrid="false"
     inkscape:window-width="2560"
     inkscape:window-height="1057"
     inkscape:window-x="-8"
     inkscape:window-y="-8"
     inkscape:window-maximized="1"
     scale-x="1"
     units="px"
     fit-margin-top="0"
     fit-margin-left="0"
     fit-margin-right="0"
     fit-margin-bottom="0" />
  <metadata
     id="metadata5">
    <rdf:RDF>
      <cc:Work
         rdf:about="">
        <dc:format>image/svg+xml</dc:format>
        <dc:type
           rdf:resource="http://purl.org/dc/dcmitype/StillImage" />
        <dc:title></dc:title>
      </cc:Work>
    </rdf:RDF>
  </metadata>
  <g
     inkscape:label="Layer 1"
     inkscape:groupmode="layer"
     id="layer1"
     transform="translate(-144.73995,-194.3106)">
    <g
       id="g1316"
       transform="translate(-100.91964,43.845238)">
      <g
         id="g1346"
         transform="translate(151.19048,68.035714)">
        <g
           id="g1119"
           transform="matrix(0.2,0,0,0.2,116.31613,94.693937)"
           style="stroke-width:5">
          <rect
             ry="0.00015258785"
             rx="0.00015258785"
             y="-61.32143"
             x="-109.23512"
             height="160.2619"
             width="346.22617"
             id="rect1845-54"
             style="opacity:1;fill:none;fill-opacity:1;stroke:none;stroke-width:39.68750763;stroke-linecap:square;stroke-linejoin:bevel;stroke-miterlimit:4;stroke-dasharray:none;stroke-dashoffset:0;stroke-opacity:1;paint-order:stroke markers fill" />
          <g
             style="opacity:1;fill:none;fill-opacity:1;stroke:#00d9b5;stroke-width:7.9375;stroke-miterlimit:4;stroke-dasharray:none;stroke-opacity:1"
             id="g1395-2-5-6"
             transform="translate(-57.940907,-245.33032)">
            <path
               style="opacity:1;fill:none;fill-opacity:1;stroke:#00d9b5;stroke-width:7.9375;stroke-linecap:square;stroke-linejoin:bevel;stroke-miterlimit:4;stroke-dasharray:none;stroke-dashoffset:0;stroke-opacity:1;paint-order:stroke markers fill"
               d="M 7.2891726,313.81729 C 38.287193,313.81739 63.416085,288.6885 63.415974,257.69048 63.416085,226.69246 38.287193,201.56357 7.2891726,201.56367"
               id="path815-6-0-3-9-29-3-8-6"
               inkscape:connector-curvature="0"
               sodipodi:nodetypes="ccc" />
            <path
               style="opacity:1;fill:none;fill-opacity:1;stroke:#00d9b5;stroke-width:7.9375;stroke-linecap:square;stroke-linejoin:bevel;stroke-miterlimit:4;stroke-dasharray:none;stroke-dashoffset:0;stroke-opacity:1;paint-order:stroke markers fill"
               d="m 51.132274,257.69048 c 9e-5,-24.50617 -19.629191,-44.37236 -43.8431014,-44.37228"
               id="path815-6-0-3-6-70-1-4-3-1"
               inkscape:connector-curvature="0"
               sodipodi:nodetypes="cc" />
            <path
               style="fill:none;fill-opacity:1;stroke:#00d9b5;stroke-width:7.9375;stroke-linecap:butt;stroke-linejoin:miter;stroke-miterlimit:4;stroke-dasharray:none;stroke-opacity:1"
               d="m -6.3415734,198.62371 v 58.03534"
               id="path1113-2-7-1-49"
               inkscape:connector-curvature="0"
               sodipodi:nodetypes="cc" />
            <path
               style="fill:none;fill-opacity:1;stroke:#00d9b5;stroke-width:7.9375;stroke-linecap:butt;stroke-linejoin:miter;stroke-miterlimit:4;stroke-dasharray:none;stroke-opacity:1"
               d="m -18.538019,256.07609 v 60.68117"
               id="path1113-5-7-0-7-9"
               inkscape:connector-curvature="0"
               sodipodi:nodetypes="cc" />
            <path
               style="fill:none;fill-opacity:1;stroke:#00d9b5;stroke-width:7.9375;stroke-linecap:butt;stroke-linejoin:miter;stroke-miterlimit:4;stroke-dasharray:none;stroke-opacity:1"
               d="M -30.734464,198.62371 V 316.75726"
               id="path1113-8-7-7-4-8"
               inkscape:connector-curvature="0" />
            <path
               style="opacity:1;fill:none;fill-opacity:1;stroke:#00d9b5;stroke-width:7.9375;stroke-linecap:square;stroke-linejoin:bevel;stroke-miterlimit:4;stroke-dasharray:none;stroke-dashoffset:0;stroke-opacity:1;paint-order:stroke markers fill"
               d="m 7.2891756,290.75176 c 17.4179844,6e-5 31.5380664,-14.80201 31.5380084,-33.06128"
               id="path815-6-0-3-9-4-0-9-2-7"
               inkscape:connector-curvature="0"
               sodipodi:nodetypes="cc" />
          </g>
          <g
             id="text1489-3-1-8"
             style="font-style:normal;font-variant:normal;font-weight:bold;font-stretch:normal;font-size:86.02253723px;line-height:1.25;font-family:'Century Gothic';-inkscape-font-specification:'Century Gothic Bold';letter-spacing:0px;word-spacing:0px;fill:#000000;fill-opacity:1;stroke:none;stroke-width:13.22999954;stroke-miterlimit:4;stroke-dasharray:none;stroke-opacity:1"
             aria-label="appit">
            <path
               inkscape:connector-curvature="0"
               id="path2393"
               style="font-style:normal;font-variant:normal;font-weight:bold;font-stretch:normal;font-family:'Century Gothic';-inkscape-font-specification:'Century Gothic Bold';fill:#000000;fill-opacity:1;stroke:none;stroke-width:13.22999954;stroke-miterlimit:4;stroke-dasharray:none;stroke-opacity:1"
               d="M 49.572276,24.449605 H 60.997144 V 70.149078 H 49.572276 v -4.830367 q -3.360255,3.192243 -6.762514,4.620351 -3.360255,1.386106 -7.308555,1.386106 -8.862674,0 -15.331165,-6.846521 -6.468492,-6.888523 -6.468492,-17.095299 0,-10.584804 6.258476,-17.347318 6.258475,-6.762514 15.205155,-6.762514 4.116313,0 7.728587,1.554118 3.612275,1.554118 6.678508,4.662355 z M 37.51736,33.85832 q -5.334406,0 -8.862674,3.780288 -3.528268,3.738284 -3.528268,9.618731 0,5.92245 3.570271,9.74474 3.612275,3.822291 8.862674,3.822291 5.418412,0 8.988683,-3.738284 3.570271,-3.780288 3.570271,-9.87075 0,-5.964454 -3.570271,-9.660735 Q 42.977775,33.85832 37.51736,33.85832 Z" />
            <path
               inkscape:connector-curvature="0"
               id="path2395"
               style="font-style:normal;font-variant:normal;font-weight:bold;font-stretch:normal;font-family:'Century Gothic';-inkscape-font-specification:'Century Gothic Bold';fill:#000000;fill-opacity:1;stroke:none;stroke-width:13.22999954;stroke-miterlimit:4;stroke-dasharray:none;stroke-opacity:1"
               d="m 83.972889,24.449605 v 5.040384 q 3.108237,-3.108237 6.720511,-4.662355 3.612275,-1.554118 7.728587,-1.554118 8.946683,0 15.205153,6.762514 6.25848,6.762514 6.25848,17.347318 0,10.206776 -6.46849,17.095299 -6.46849,6.846521 -15.331168,6.846521 -3.9483,0 -7.350559,-1.386106 -3.402258,-1.428108 -6.762514,-4.620351 V 86.866349 H 72.590024 V 24.449605 Z m 12.054917,9.408715 q -5.418412,0 -8.988684,3.696281 -3.570271,3.696281 -3.570271,9.660735 0,6.090462 3.570271,9.87075 3.570272,3.738284 8.988684,3.738284 5.250394,0 8.820674,-3.822291 3.61227,-3.82229 3.61227,-9.74474 0,-5.880447 -3.52827,-9.618731 -3.52827,-3.780288 -8.904674,-3.780288 z" />
            <path
               inkscape:connector-curvature="0"
               id="path2397"
               style="font-style:normal;font-variant:normal;font-weight:bold;font-stretch:normal;font-family:'Century Gothic';-inkscape-font-specification:'Century Gothic Bold';fill:#000000;fill-opacity:1;stroke:none;stroke-width:13.22999954;stroke-miterlimit:4;stroke-dasharray:none;stroke-opacity:1"
               d="m 140.7612,24.449605 v 5.040384 q 3.10824,-3.108237 6.72051,-4.662355 3.61228,-1.554118 7.72859,-1.554118 8.94668,0 15.20516,6.762514 6.25847,6.762514 6.25847,17.347318 0,10.206776 -6.46849,17.095299 -6.46849,6.846521 -15.33116,6.846521 -3.9483,0 -7.35056,-1.386106 -3.40226,-1.428108 -6.76252,-4.620351 V 86.866349 H 129.37834 V 24.449605 Z m 12.05492,9.408715 q -5.41841,0 -8.98868,3.696281 -3.57027,3.696281 -3.57027,9.660735 0,6.090462 3.57027,9.87075 3.57027,3.738284 8.98868,3.738284 5.2504,0 8.82067,-3.822291 3.61228,-3.82229 3.61228,-9.74474 0,-5.880447 -3.52827,-9.618731 -3.52827,-3.780288 -8.90468,-3.780288 z" />
            <path
               inkscape:connector-curvature="0"
               id="path2406"
               d="m 190.661,5.6321754 q 3.02423,0 5.16639,2.184166 2.18416,2.1841656 2.18416,5.2924026 0,3.066233 -2.14216,5.250399 -2.14216,2.142162 -5.12439,2.142162 -3.06623,0 -5.2504,-2.184166 -2.14216,-2.226169 -2.14216,-5.376408 0,-3.02423 2.14216,-5.1663928 2.14217,-2.1421628 5.1664,-2.1421628 z"
               style="font-style:normal;font-variant:normal;font-weight:bold;font-stretch:normal;font-family:'Century Gothic';-inkscape-font-specification:'Century Gothic Bold';fill:#00d9b5;fill-opacity:1;stroke:none;stroke-width:13.22999954;stroke-miterlimit:4;stroke-dasharray:none;stroke-opacity:1" />
            <path
               inkscape:connector-curvature="0"
               id="path2399"
               d="m 184.90656,24.449605 h 11.50887 v 45.699473 h -11.50887 z"
               style="font-style:normal;font-variant:normal;font-weight:bold;font-stretch:normal;font-family:'Century Gothic';-inkscape-font-specification:'Century Gothic Bold';fill:#000000;fill-opacity:1;stroke:none;stroke-width:13.22999954;stroke-miterlimit:4;stroke-dasharray:none;stroke-opacity:1" />
            <path
               inkscape:connector-curvature="0"
               id="path2401"
               style="font-style:normal;font-variant:normal;font-weight:bold;font-stretch:normal;font-family:'Century Gothic';-inkscape-font-specification:'Century Gothic Bold';fill:#000000;fill-opacity:1;stroke:none;stroke-width:13.22999954;stroke-miterlimit:4;stroke-dasharray:none;stroke-opacity:1"
               d="M 208.21833,7.6063255 H 219.6432 V 24.449605 h 6.80452 v 9.870751 H 219.6432 V 70.149078 H 208.21833 V 34.320356 h -5.88044 v -9.870751 h 5.88044 z" />
          </g>
        </g>
      </g>
    </g>
  </g>
</svg>
